<svg xmlns="http://www.w3.org/2000/svg" xmlns:xlink="http://www.w3.org/1999/xlink" viewBox="0 0 377.44 77.24"><defs><style>.cls-1{fill:#231f1f;}.cls-2{fill:url(#linear-gradient);}.cls-3{fill:url(#linear-gradient-2);}.cls-4{fill:url(#linear-gradient-3);}.cls-5{fill:url(#linear-gradient-4);}.cls-6{fill:url(#linear-gradient-5);}</style><linearGradient id="linear-gradient" x1="-5127.12" y1="3884.48" x2="-5168.99" y2="3884.48" gradientTransform="translate(3968.9 5168.55) rotate(90)" gradientUnits="userSpaceOnUse"><stop offset="0" stop-color="#b16d20"/><stop offset="0.7" stop-color="#efa125"/></linearGradient><linearGradient id="linear-gradient-2" x1="-5132.4" y1="3884.48" x2="-5091.31" y2="3884.48" gradientTransform="translate(3968.9 5168.55) rotate(90)" gradientUnits="userSpaceOnUse"><stop offset="0" stop-color="#6d6e70"/><stop offset="1" stop-color="#929496"/></linearGradient><linearGradient id="linear-gradient-3" x1="-6701.5" y1="10703.04" x2="-6743.37" y2="10703.04" gradientTransform="translate(-10687.04 -6665.69) rotate(-90)" xlink:href="#linear-gradient"/><linearGradient id="linear-gradient-4" x1="-6706.77" y1="10703.04" x2="-6665.69" y2="10703.04" gradientTransform="translate(-10687.04 -6665.69) rotate(-90)" xlink:href="#linear-gradient-2"/><linearGradient id="linear-gradient-5" x1="50.21" y1="59.07" x2="50.21" y2="23.21" gradientTransform="matrix(1, 0, 0, 1, 0, 0)" xlink:href="#linear-gradient"/></defs><g id="Layer_2" data-name="Layer 2"><g id="Layer_1-2" data-name="Layer 1"><path class="cls-1" d="M191.25,31.89c-5.69,0-8.72,3-8.72,9s3,9,8.72,9,8.72-3,8.72-9S197,31.89,191.25,31.89Zm4.89,11.88A3,3,0,0,1,192.83,47h-1.65c-3.29,0-4.82-2-4.82-6V38.06a3,3,0,0,1,3.31-3.18h1.65c3.29,0,4.82,2,4.82,6Z"/><path class="cls-1" d="M175.51,27.73h-3.7V32c0,.71-.29,1-1.12,1h-1.18v2.19h2.3v9.23c0,3.84,2.25,5.3,6.16,5.3h2.09V47.85c0-.85-.43-1.33-1.43-1.33h-1.3c-1.5,0-1.82-.25-1.82-1.67V35.18h3.33c.88,0,1.36-.54,1.36-1.56V32.19h-4.69Z"/><path class="cls-1" d="M152.32,41c0,3.1.84,5.4,2.47,6.84a8.54,8.54,0,0,0,5.83,1.83h5.78V48.06c0-.8-.42-1.24-1.41-1.24h-3.73c-3.3,0-5.2-1.51-5.2-5.15V38.94c0-3.37.95-3.76,3.81-3.76H165c1,0,1.41-.45,1.41-1.25V32.19h-5.73C155.06,32.19,152.32,35.08,152.32,41Z"/><path class="cls-1" d="M141.93,31.89c-4.73,0-8.78,1.81-8.78,9s4.22,8.83,8.34,8.83h7V48.16c0-.9-.45-1.4-1.51-1.4h-5.57c-2.89,0-4.38-1.67-4.52-4.35H148c1.23,0,1.72-.57,1.72-1.77v-1A7.62,7.62,0,0,0,141.93,31.89ZM146,39.52h-9.15V37.47c0-1.54.6-2.77,2.78-2.77h2.29A4.09,4.09,0,0,1,146,39.09Z"/><path class="cls-1" d="M128,27.71h-2v9.2H115.24V29.28c0-1-.51-1.57-1.69-1.57h-2V48.14c0,1,.51,1.57,1.69,1.57h2V40H126v8.15c0,1,.5,1.57,1.69,1.57h2V29.28C129.69,28.28,129.19,27.71,128,27.71Z"/><path class="cls-1" d="M267.8,31.62c-5.71,0-8.74,3-8.74,9.05s3,9,8.74,9,8.74-3,8.74-9S273.51,31.62,267.8,31.62Zm4.91,11.91a3,3,0,0,1-3.32,3.19h-1.66c-3.3,0-4.83-2-4.83-6V37.81a3,3,0,0,1,3.32-3.19h1.65c3.3,0,4.84,2,4.84,6.05Z"/><path class="cls-1" d="M349.13,31.62c-5.71,0-8.74,3-8.74,9.05s3,9,8.74,9,8.73-3,8.73-9S354.84,31.62,349.13,31.62ZM354,43.53a3,3,0,0,1-3.32,3.19h-1.65c-3.3,0-4.84-2-4.84-6V37.81a3,3,0,0,1,3.32-3.19h1.66c3.3,0,4.83,2,4.83,6.05Z"/><path class="cls-1" d="M292.06,34.2,287.5,46.4h-.1c-.45-1.27-3.93-11-4.47-12.52-.46-1.27-1-1.73-2.73-1.73h-1.88l7.1,17.56h2.1c1.39,0,2-.21,2.8-2L297,32.15h-1.86C293.22,32.15,292.62,32.81,292.06,34.2Z"/><path class="cls-1" d="M324.86,35.14h3.34c.88,0,1.37-.54,1.37-1.56V32.15h-4.71V27.67h-3.71v4.24c0,.72-.29,1-1.12,1h-1.18v2.19h2.3v9.25c0,3.85,2.26,5.32,6.18,5.32h2.1V47.85c0-.86-.44-1.34-1.44-1.34h-1.3c-1.5,0-1.83-.25-1.83-1.68Z"/><path class="cls-1" d="M315.48,39.78c0-6-2.87-7.86-8.5-7.86h-6.25v1.75c0,.8.42,1.25,1.41,1.25h5.68c2.85,0,4,1.21,4,3.56h-5.47c-4,0-7.4,1.57-7.4,5.78,0,3.15,1.88,5.45,7.15,5.45,2.92,0,4.92-.78,6.31-2.34v.68c0,.85.43,1.33,1.44,1.33h1.61Zm-3.63,3.41c0,3.21-.82,3.64-3.15,3.64h-2.83c-1.91,0-3.12-1-3.12-2.5v-.58c0-1.88.44-2.49,2.4-2.49h6.7Z"/><path class="cls-1" d="M333.1,48.14c0,1,.5,1.57,1.68,1.57h2.11v-16c0-1-.51-1.58-1.69-1.58h-2.1Z"/><path class="cls-1" d="M335,25.43c-1.5,0-2.66.39-2.66,2.21s1.16,2.22,2.66,2.22,2.67-.4,2.67-2.22S336.49,25.43,335,25.43Z"/><path class="cls-1" d="M223.58,38.08a3,3,0,0,1,3.29-3.19h2a3.32,3.32,0,0,1,3.61,3.62v9.63c0,1,.5,1.57,1.69,1.57h1.9V39.26c0-4.92-2.42-7.41-6.75-7.41-3.45,0-5.22.88-6.29,2.3v-.64c0-.85-.43-1.33-1.43-1.33H220v16c0,1,.5,1.57,1.69,1.57h1.9Z"/><path class="cls-1" d="M243.2,38.08a3,3,0,0,1,3.28-3.19h2a3.31,3.31,0,0,1,3.61,3.62v9.63c0,1,.51,1.57,1.69,1.57h1.91V39.26c0-4.92-2.43-7.41-6.76-7.41-3.44,0-5.21.88-6.29,2.3v-.64c0-.85-.42-1.33-1.43-1.33H239.6v16c0,1,.51,1.57,1.69,1.57h1.91Z"/><path class="cls-1" d="M364.94,38.08a3,3,0,0,1,3.28-3.19h2a3.31,3.31,0,0,1,3.6,3.62v9.63c0,1,.51,1.57,1.69,1.57h1.91V39.26c0-4.92-2.43-7.41-6.76-7.41-3.44,0-5.21.88-6.28,2.3v-.64c0-.85-.43-1.33-1.44-1.33h-1.62v16c0,1,.51,1.57,1.7,1.57h1.9Z"/><path class="cls-1" d="M214.72,27.94h-2.07V48.16c0,1,.49,1.55,1.67,1.55h2.07V29.5C216.39,28.5,215.89,27.94,214.72,27.94Z"/><path class="cls-2" d="M86.88,41.08c.26-5.33,4-8.82,8.87-13.75a16,16,0,1,0-22.64,0Z"/><path class="cls-3" d="M82,36.16c-.25,5.33-4,8.82-8.86,13.75a16,16,0,1,0,22.63,0Z"/><path class="cls-4" d="M13.53,36.16c-.25,5.33-4,8.82-8.87,13.75a16,16,0,1,0,22.64,0Z"/><path class="cls-5" d="M18.46,41.09c.25-5.33,4-8.83,8.87-13.76a16,16,0,1,0-22.64,0Z"/><path class="cls-6" d="M65.66,38.62A15.45,15.45,0,1,0,50.21,54.07,15.45,15.45,0,0,0,65.66,38.62Z"/></g></g></svg>